<svg width="22" height="22" viewBox="0 0 22 22" fill="none" xmlns="http://www.w3.org/2000/svg">
<path d="M19.7364 6.67391L8.73641 17.6739C8.67256 17.7378 8.59673 17.7885 8.51327 17.8231C8.42981 17.8577 8.34035 17.8755 8.25 17.8755C8.15965 17.8755 8.07019 17.8577 7.98673 17.8231C7.90327 17.7885 7.82744 17.7378 7.76359 17.6739L2.95109 12.8614C2.82209 12.7324 2.74962 12.5574 2.74962 12.375C2.74962 12.1926 2.82209 12.0176 2.95109 11.8886C3.0801 11.7596 3.25506 11.6871 3.4375 11.6871C3.61994 11.6871 3.7949 11.7596 3.92391 11.8886L8.25 16.2155L18.7636 5.70109C18.8926 5.57209 19.0676 5.49962 19.25 5.49962C19.4324 5.49962 19.6074 5.57209 19.7364 5.70109C19.8654 5.8301 19.9379 6.00506 19.9379 6.1875C19.9379 6.36994 19.8654 6.5449 19.7364 6.67391Z" fill="#9E78CF"/>
</svg>
