<svg width="40" height="40" viewBox="0 0 40 40" fill="none" xmlns="http://www.w3.org/2000/svg">
<rect width="40" height="40" rx="10" fill="#9E78CF"/>
<path d="M32 20C32 20.2652 31.8946 20.5196 31.7071 20.7071C31.5196 20.8946 31.2652 21 31 21H21V31C21 31.2652 20.8946 31.5196 20.7071 31.7071C20.5196 31.8946 20.2652 32 20 32C19.7348 32 19.4804 31.8946 19.2929 31.7071C19.1054 31.5196 19 31.2652 19 31V21H9C8.73478 21 8.48043 20.8946 8.29289 20.7071C8.10536 20.5196 8 20.2652 8 20C8 19.7348 8.10536 19.4804 8.29289 19.2929C8.48043 19.1054 8.73478 19 9 19H19V9C19 8.73478 19.1054 8.48043 19.2929 8.29289C19.4804 8.10536 19.7348 8 20 8C20.2652 8 20.5196 8.10536 20.7071 8.29289C20.8946 8.48043 21 8.73478 21 9V19H31C31.2652 19 31.5196 19.1054 31.7071 19.2929C31.8946 19.4804 32 19.7348 32 20Z" fill="white"/>
</svg>
